<?xml version="1.0" encoding="UTF-8"?>
<svg xmlns="http://www.w3.org/2000/svg" width="507" height="200" viewBox="0 0 507 200" fill="none">
  <path d="M0.142578 199.196V159.02H3.64371L31.3658 193.916H29.5291V159.02H33.719V199.196H30.2179L2.55319 164.3H4.38985V199.196H0.142578Z" fill="#093354"></path>
  <path d="M62.6737 199.541C59.6509 199.541 56.8385 199.043 54.2366 198.049C51.6729 197.015 49.4345 195.581 47.5213 193.744C45.6464 191.869 44.1732 189.707 43.1018 187.258C42.0687 184.771 41.5521 182.054 41.5521 179.108C41.5521 176.162 42.0687 173.464 43.1018 171.015C44.1732 168.528 45.6464 166.366 47.5213 164.53C49.4345 162.655 51.6729 161.22 54.2366 160.225C56.8002 159.192 59.6126 158.675 62.6737 158.675C65.6966 158.675 68.4898 159.192 71.0535 160.225C73.6171 161.22 75.8364 162.635 77.7114 164.472C79.6245 166.309 81.0977 168.471 82.1308 170.958C83.2022 173.445 83.7379 176.162 83.7379 179.108C83.7379 182.054 83.2022 184.771 82.1308 187.258C81.0977 189.745 79.6245 191.907 77.7114 193.744C75.8364 195.581 73.6171 197.015 71.0535 198.049C68.4898 199.043 65.6966 199.541 62.6737 199.541ZM62.6737 195.753C65.0843 195.753 67.3036 195.351 69.3316 194.547C71.3978 193.706 73.1771 192.539 74.6694 191.046C76.1999 189.516 77.3861 187.756 78.2279 185.766C79.0697 183.738 79.4906 181.519 79.4906 179.108C79.4906 176.697 79.0697 174.497 78.2279 172.507C77.3861 170.48 76.1999 168.719 74.6694 167.227C73.1771 165.697 71.3978 164.53 69.3316 163.726C67.3036 162.884 65.0843 162.463 62.6737 162.463C60.2631 162.463 58.0247 162.884 55.9584 163.726C53.8922 164.53 52.0938 165.697 50.5632 167.227C49.071 168.719 47.8848 170.48 47.0047 172.507C46.1629 174.497 45.742 176.697 45.742 179.108C45.742 181.48 46.1629 183.68 47.0047 185.708C47.8848 187.736 49.071 189.516 50.5632 191.046C52.0938 192.539 53.8922 193.706 55.9584 194.547C58.0247 195.351 60.2631 195.753 62.6737 195.753Z" fill="#093354"></path>
  <path d="M99.4849 199.196L85.9396 159.02H90.3016L102.986 196.843H100.805L113.891 159.02H117.794L130.708 196.843H128.642L141.441 159.02H145.516L131.971 199.196H127.494L115.154 163.324H116.302L103.904 199.196H99.4849Z" fill="#093354"></path>
  <path d="M143.92 199.196L162.287 159.02H166.477L184.843 199.196H180.366L163.492 161.488H165.214L148.34 199.196H143.92ZM151.152 188.463L152.415 185.02H175.775L177.038 188.463H151.152Z" fill="#093354"></path>
  <path d="M200.189 199.196V159.02H209.545L231.7 185.766H227.28V159.02H238.415V199.196H229.059L206.905 172.45H211.324V199.196H200.189Z" fill="#F3C209"></path>
  <path d="M241.61 199.196L259.345 159.02H270.537L288.33 199.196H276.506L262.617 164.587H267.093L253.204 199.196H241.61ZM251.31 191.391L254.237 183.011H273.866L276.793 191.391H251.31Z" fill="#F3C209"></path>
  <path d="M291.552 199.196V159.02H310.549C314.988 159.02 318.891 159.842 322.258 161.488C325.625 163.133 328.246 165.448 330.121 168.432C332.035 171.417 332.991 174.976 332.991 179.108C332.991 183.202 332.035 186.761 330.121 189.784C328.246 192.768 325.625 195.083 322.258 196.728C318.891 198.374 314.988 199.196 310.549 199.196H291.552ZM302.916 190.128H310.09C312.386 190.128 314.376 189.707 316.059 188.865C317.781 187.985 319.121 186.722 320.077 185.077C321.034 183.394 321.512 181.404 321.512 179.108C321.512 176.774 321.034 174.784 320.077 173.139C319.121 171.494 317.781 170.25 316.059 169.408C314.376 168.528 312.386 168.088 310.09 168.088H302.916V190.128Z" fill="#F3C209"></path>
  <path d="M333.249 199.196V192.079L356.896 164.013L358.273 168.031H333.765V159.02H368.375V166.137L344.728 194.203L343.35 190.185H369.236V199.196H333.249Z" fill="#F3C209"></path>
  <path d="M374.213 199.196V159.02H385.577V199.196H374.213Z" fill="#F3C209"></path>
  <path d="M404.108 174.574H422.762V183.068H404.108V174.574ZM404.912 190.415H425.918V199.196H393.662V159.02H425.172V167.801H404.912V190.415Z" fill="#F3C209"></path>
  <path d="M444.383 200C441.436 200 438.758 199.503 436.347 198.508C433.975 197.475 432.004 196.001 430.435 194.088L436.634 186.742C437.706 188.119 438.815 189.171 439.963 189.898C441.111 190.587 442.316 190.931 443.579 190.931C446.946 190.931 448.63 188.98 448.63 185.077V167.801H434.74V159.02H459.879V184.388C459.879 189.631 458.559 193.553 455.919 196.154C453.279 198.718 449.433 200 444.383 200Z" fill="#F3C209"></path>
  <path d="M461.888 199.196L477.799 159.02H488.991L506.783 199.196H494.96L481.07 164.587H485.547L471.657 199.196L461.888 199.196ZM469.763 191.391L472.69 183.011H492.32L495.247 191.391H469.763Z" fill="#F3C209"></path>
  <path d="M250.388 108.936C301.758 108.936 365.375 28.9151 365.375 28.9151C365.375 28.9151 295.293 58.5026 250.388 58.5026C205.482 58.5026 135.4 28.9151 135.4 28.9151C135.4 28.9151 199.018 108.936 250.388 108.936Z" fill="#093354"></path>
  <path d="M250.388 138.523H178.436C166.332 84.0555 135.4 28.9151 135.4 28.9151C183.143 75.3137 203.989 74.6413 203.989 74.6413C222.817 74.6413 250.388 9.15527e-05 250.388 9.15527e-05V138.523Z" fill="#FDCD1A"></path>
  <path d="M244.201 15.467C228.884 53.5953 218.282 77.331 203.989 77.331C180.454 77.331 135.4 28.915 135.4 28.915C183.143 75.3136 203.989 74.6412 203.989 74.6412C217.301 74.6412 234.983 37.33 244.201 15.467C246.179 10.5445 248.235 5.38216 250.388 0C250.388 0 248.021 6.40711 244.201 15.467Z" fill="#FFEE0C"></path>
  <path d="M250.387 138.523H322.339C334.443 84.0555 365.375 28.9151 365.375 28.9151C317.632 75.3137 296.786 74.6413 296.786 74.6413C277.957 74.6413 250.387 9.15527e-05 250.387 9.15527e-05V138.523Z" fill="#E5B813"></path>
  <path d="M256.574 15.4671C271.891 53.5954 282.493 77.331 296.786 77.331C320.321 77.331 365.375 28.9151 365.375 28.9151C317.632 75.3137 296.786 74.6413 296.786 74.6413C283.474 74.6413 265.792 37.3301 256.574 15.4671C254.596 10.5446 252.54 5.38225 250.387 9.15527e-05C250.387 9.15527e-05 252.754 6.4072 256.574 15.4671Z" fill="#FFD504"></path>
</svg>
